<?xml version='1.0' encoding='utf-8'?>
<svg xmlns="http://www.w3.org/2000/svg" width="412" height="456" viewBox="0 0 412 456" version="1.1" id="svg5" xml:space="preserve"><defs id="defs2" /><g id="layer1"><path style="fill:#3b82f6;stroke-width:1" d="m 137.26380000000017 455.63880000000063 c -9.626,-1.6087 -19.6471,-5.3316 -27.7114,-10.2955 -2.1794,-1.3417 -4.1279,-2.104 -7.5584,-2.9568 -9.9259,-2.4681 -16.5356,-6.1112 -23.1287,-12.7465 -4.3041,-4.3333 -6.924,-7.8587 -10.0771,-13.5662 -1.9687,-3.5627 -2.502,-4.1806 -5.6896,-6.5917 -8.6214,-6.5197 -14.7657,-14.9489 -16.569,-22.7297 -0.3737,-1.6159 -1.4355,-5.0072 -2.3568,-7.5362 -2.4187,-6.6338 -3.3138,-10.4726 -3.2388,-13.878 0.036,-1.6166 -0.1416,-3.7896 -0.3964,-4.8289 -0.2547,-1.0394 -0.4666,-3.8062 -0.4725,-6.1489 0,-3.1454 -0.1559,-4.315 -0.5678,-4.473 -1.5057,-0.5779 -9.6759,-7.1913 -13.2897,-10.7577 -6.6597,-6.572 -10.7627,-12.7374 -13.2992,-19.9818 -1.0867,-3.1075 -1.1796,-3.8673 -1.2284,-10.1401 l -0.048,-6.7811 -2.5972,-3.4472 c -3.5221,-4.6738 -6.4741,-10.876 -7.8929,-16.5837 -1.0665,-4.2864 -1.1486,-5.239 -1.1415,-13.2272 0.012,-12.1166 1.4438,-18.9086 5.6432,-26.7676 l 1.626,-3.043 -0.9844,-2.626 c -0.5416,-1.444 -1.2058,-3.76 -1.4784,-5.146 -0.2714,-1.385 -1.0439,-4.139 -1.714,-6.118 -2.0021,-5.906 -2.6341,-10.609 -2.3687,-17.607 0.2476,-6.545 0.8856,-10.135 2.8662,-16.135 1.5331,-4.643 5.5242,-12.898 8.0584,-16.667 1.8473,-2.749 1.8628,-2.801 1.4176,-4.829 -0.2476,-1.13 -0.4642,-6.76 -0.4809,-12.548 -0.024,-8.669 0.1072,-11.12 0.7368,-14.067 2.1461,-9.982 6.8312,-18.859 14.3122,-27.119 2.6389,-2.915 2.7996,-3.213 3.3971,-6.337 1.2701,-6.638 3.8852,-12.872 7.9834,-19.031 2.8388,-4.266 9.708,-11.094 13.9717,-13.888 2.0521,-1.345 3.5483,-2.625 3.6459,-3.12 1.614,-8.22 4.5779,-15.208 8.9034,-20.996 3.3567,-4.492 10.1414,-10.827 14.5193,-13.555 1.9569,-1.22 5.3314,-2.937 7.5001,-3.816 l 3.9423,-1.599 1.6914,-3.112 c 4.8993,-9.013 10.8746,-15.153 19.7244,-20.264 9.2796,-5.36 24.0179,-9.16 40.1465,-10.351 16.0262,-1.183 31.2965,2.309 41.3165,9.449 2.7984,1.995 7.8738,7.004 9.9069,9.778 0.726,0.992 1.4628,1.748 1.6378,1.68 0.1738,-0.07 1.4403,-1.54 2.8127,-3.272 12.7374,-16.071 36.4113,-21.456 67.1758,-15.28 21.1694,4.25 35.1376,13.492 42.9507,28.418 1.5081,2.882 1.5248,2.897 4.8815,4.289 11.8756,4.924 22.4264,14.992 27.7197,26.451 0.8284,1.792 1.9913,5.266 2.5841,7.719 0.5928,2.453 1.132,4.684 1.1974,4.956 0.071,0.273 1.5082,1.432 3.2031,2.576 8.0012,5.399 13.8944,12.073 18.1521,20.557 2.4318,4.847 4.4291,11.101 4.4291,13.874 0,0.985 0.7618,2.147 3.3995,5.188 3.8316,4.417 7.7524,10.084 9.8117,14.182 1.6866,3.358 3.7137,9.633 4.4838,13.883 0.7237,3.992 0.7344,18.582 0.012,23.596 l -0.5213,3.65 1.9699,3.069 c 2.802,4.361 6.5491,12.054 8.1322,16.689 3.7149,10.885 3.9434,22.722 0.6415,33.199 -0.7642,2.425 -1.6985,5.695 -2.0759,7.266 -0.3773,1.572 -1.0355,3.777 -1.4616,4.9 l -0.7761,2.041 2.4603,4.969 c 8.8166,17.811 6.3122,42.2549 -5.8003,56.5976 l -1.401,1.6593 0.269,4.2195 c 0.5618,8.7844 -1.8937,16.5686 -7.825,24.8044 -3.1519,4.3767 -10.7806,11.7396 -16.4178,15.8449 l -4.4625,3.2503 0.2072,1.8359 c 0.119,1.0097 -0.024,3.4194 -0.3,5.3545 -0.2785,1.9354 -0.6475,5.6918 -0.8213,8.3477 -0.2702,4.1457 -0.5678,5.542 -2.1045,9.8679 -0.9843,2.7715 -2.3139,7.0231 -2.9531,9.4481 -0.6404,2.4249 -1.5688,5.3298 -2.064,6.4552 -2.6651,6.0604 -9.132,13.697 -15.4953,18.2986 -2.652,1.9175 -3.2638,2.6169 -4.5648,5.2119 -7.2608,14.4915 -18.4616,23.5021 -33.7343,27.1371 -3.2412,0.7717 -4.8933,1.4835 -8.8177,3.7997 -8.3524,4.9296 -15.731,7.6291 -25.4046,9.2938 -6.993,1.2035 -18.6496,0.9163 -25.8248,-0.6365 -13.6075,-2.9449 -26.1866,-9.3196 -34.2056,-17.3335 -2.9341,-2.9329 -6.9775,-8.4797 -8.4547,-11.5999 -0.4107,-0.8661 -0.8773,-1.5747 -1.0368,-1.5747 -0.1606,0 -0.5451,0.6141 -0.8546,1.3647 -1.1403,2.7683 -5.6825,8.9822 -8.8796,12.1491 -6.9323,6.8676 -18.4449,13.1108 -29.2755,15.8761 -7.3643,1.8801 -9.8366,2.2 -18.0711,2.3377 -5.4908,0.092 -9.295,-0.048 -11.5483,-0.4246 z m 19.3162,-10.9504 c 13.1564,-2.0588 25.326,-7.9522 32.863,-15.9134 1.864,-1.9694 3.8232,-4.1991 4.3553,-4.9548 0.8272,-1.1762 0.6356,-1.0792 -1.3296,0.6742 -8.851,7.896 -20.1768,12.2067 -35.4685,13.4993 -3.0543,0.2581 -3.465,0.201 -4.5148,-0.6288 -0.8571,-0.6778 -1.1546,-1.283 -1.1546,-2.3519 0,-2.3269 0.9879,-2.9313 5.7146,-3.4985 9.3724,-1.1246 14.6312,-2.4024 20.7588,-5.0434 8.9773,-3.8687 17.6569,-12.2225 21.7278,-20.9104 0.9891,-2.1123 1.1569,-3.0626 1.2819,-7.2594 l 0.144,-4.829 -1.6902,2.5195 c -6.2217,9.2746 -15.2572,15.2151 -26.7853,17.611 -7.1109,1.4778 -15.6846,1.2192 -20.3339,-0.6134 l -1.9354,-0.763 -1.1618,2.3805 c -6.33,12.9681 -15.4203,20.6924 -26.8269,22.794 -1.5439,0.2845 -2.8068,0.6482 -2.8068,0.8083 0,0.4115 5.448,2.8131 9.545,4.2076 9.1189,3.1035 17.7593,3.8142 27.6174,2.2716 z m 117.9849,-0.036 c 4.3053,-0.7309 12.6362,-3.4075 16.125,-5.1808 2.3592,-1.199 2.3604,-1.2003 1.101,-1.4731 -7.356,-1.5944 -10.7948,-2.8921 -14.7038,-5.5485 -5.6158,-3.8151 -9.6045,-8.5304 -13.4384,-15.8829 -1.0844,-2.0786 -2.0474,-3.9059 -2.1402,-4.0608 -0.095,-0.155 -1.2082,0.083 -2.477,0.5295 -6.6669,2.3431 -17.0153,1.9686 -25.4558,-0.9212 -8.3035,-2.8429 -14.4812,-7.4876 -20.3767,-15.3206 -1.2879,-1.7117 -2.3663,-3.1121 -2.3961,-3.1121 -0.024,0 -0.048,2.1259 -0.036,4.7241 0.024,4.7146 0.024,4.7306 1.7867,8.101 2.2722,4.3529 6.5049,9.6247 10.3044,12.8375 8.1857,6.9212 16.9534,10.414 29.9098,11.9157 3.165,0.3667 6.0801,0.8412 6.4777,1.0541 0.3975,0.2131 0.9534,0.942 1.2343,1.62 0.4214,1.0184 0.3952,1.4558 -0.1536,2.5167 -0.9117,1.7642 -2.3222,1.9418 -8.8689,1.1167 -14.6847,-1.8508 -24.4452,-5.8764 -32.4797,-13.395 -2.3318,-2.1813 -1.8676,-1.3159 1.3843,2.582 5.6051,6.7206 13.992,12.0337 24.3262,15.4104 10.4806,3.4248 19.7875,4.1996 29.8729,2.4873 z m 32.5535,-13.0431 c 6.924,-1.4308 12.4767,-4.3133 17.5415,-9.1065 2.6186,-2.478 7.6524,-8.546 7.6524,-9.2238 0,-0.1011 -1.4736,0.2454 -3.2769,0.7695 -5.2802,1.5351 -10.2628,2.0383 -17.4069,1.758 -7.1109,-0.279 -11.2258,-1.0603 -18.2819,-3.4711 -7.7369,-2.644 -13.9681,-5.8269 -20.3041,-10.3734 l -3.2007,-2.2957 -0.7285,2.6934 c -0.4011,1.4815 -1.195,3.3797 -1.764,4.2186 l -1.0356,1.5251 1.989,3.8119 c 3.0282,5.807 5.3492,9.1027 8.5143,12.0886 5.3254,5.0229 11.8351,7.6877 20.6433,8.45 2.3354,0.2023 6.2479,-0.1398 9.6581,-0.8446 z m -187.7877,0.039 c 11.0817,-2.2794 18.0545,-8.0414 23.9727,-19.8106 l 1.7402,-3.4633 -1.0356,-2.0458 c -0.5701,-1.1252 -1.2629,-2.9665 -1.5378,-4.0918 -0.2762,-1.1253 -0.5583,-2.1153 -0.6285,-2.2 -0.071,-0.085 -1.4117,0.7753 -2.9817,1.911 -8.2881,5.9939 -17.2379,9.98 -28.2601,12.5861 -3.3674,0.7963 -6.0455,1.0975 -11.3376,1.2749 -7.3966,0.248 -11.1281,-0.1223 -16.1024,-1.5977 -1.5807,-0.469 -2.9734,-0.7535 -3.0948,-0.6323 -0.3892,0.3897 3.4793,5.4258 6.2586,8.1477 5.0909,4.985 10.1676,7.9296 16.4821,9.5626 4.6826,1.2107 11.6483,1.3621 16.5249,0.3592 z m -16.4999,-22.4481 c 13.4206,-1.5331 28.4446,-8.1936 37.5968,-16.6681 1.6093,-1.4893 2.9246,-2.8552 2.9246,-3.0353 0,-0.1802 -2.6925,-0.3247 -5.9837,-0.3213 -6.9454,0.012 -11.9518,-0.7577 -17.3843,-2.6564 -5.6003,-1.9573 -5.2385,-1.9636 -7.8167,0.1364 -5.8789,4.7883 -11.0686,7.4404 -18.3639,9.385 -4.2958,1.1447 -13.1231,1.0639 -17.3439,-0.1588 -5.9705,-1.7299 -13.0659,-5.6843 -16.9749,-9.4602 -0.9772,-0.9433 -1.8783,-1.6134 -2.002,-1.4892 -0.125,0.1242 0.5475,1.7713 1.4926,3.6602 2.0771,4.1489 7.3977,9.976 11.753,12.8718 9.4926,6.3107 20.7767,9.0297 32.1024,7.7359 z m 216.4311,0 c 10.6508,-1.0929 20.4279,-5.5989 27.3281,-12.5942 2.9531,-2.9937 6.6597,-8.4761 7.3727,-10.9023 0.2726,-0.9284 0.048,-0.8271 -1.9581,0.8863 -5.0111,4.2791 -11.0709,7.5743 -17.051,9.2722 -4.3315,1.2299 -11.8328,1.3146 -16.7083,0.1887 -6.5276,-1.5076 -13.0064,-4.7552 -18.2651,-9.1549 l -2.8389,-2.375 -3.7351,1.4031 c -5.9896,2.2494 -11.5305,3.1997 -18.7246,3.2108 l -6.1932,0.012 0.882,1.2388 c 1.1118,1.5609 5.0041,4.8117 8.913,7.4435 10.3806,6.9894 23.5798,11.4783 34.5639,11.7554 1.188,0.03 4.0744,-0.142 6.4146,-0.3821 z m -147.9853,-1.9282 c 4.147,-0.7777 9.7486,-3.0085 12.7874,-5.0932 5.5706,-3.8211 10.9151,-10.0688 13.8468,-16.1898 1.6247,-3.3937 3.1495,-7.8456 2.6853,-7.8456 -0.1309,0 -1.4486,1.1324 -2.9281,2.5164 -4.0756,3.812 -24.2893,16.7906 -26.7032,17.1448 -2.5163,0.3694 -4.1637,-2.7799 -2.5128,-4.8038 0.8511,-1.0432 5.0326,-3.8663 12.0625,-8.1431 11.0853,-6.7434 16.0917,-11.2455 18.9615,-17.0492 l 1.6141,-3.2654 0.1261,-12.6207 c 0.071,-6.9415 0.071,-14.227 0,-16.19 l -0.1261,-3.5693 -1.3427,2.7294 c -5.7944,11.7716 -16.5511,21.0937 -29.0552,25.1801 -6.4229,2.0986 -11.2995,2.6809 -20.1601,2.4072 -8.4333,-0.2605 -12.9612,-0.9964 -19.9364,-3.2395 -2.0866,-0.6707 -3.822,-1.1797 -3.8565,-1.1311 -0.036,0.049 -0.9463,2.3559 -2.0247,5.1273 -2.2402,5.7595 -2.264,5.8036 -3.446,6.4253 -0.6832,0.3589 -1.1974,0.3028 -2.3091,-0.2522 -2.158,-1.0772 -2.1104,-2.6475 0.2714,-8.874 1.0772,-2.8141 1.8902,-5.1619 1.8068,-5.2174 -0.083,-0.056 -1.7569,-1.0187 -3.7197,-2.1406 -5.0968,-2.913 -7.6524,-4.8776 -12.1363,-9.3336 -2.1723,-2.1578 -3.9672,-3.8737 -3.9898,-3.813 -0.024,0.061 -0.4726,0.8662 -1.0011,1.79 -3.015,5.2668 -3.6102,6.9909 -3.6185,10.4813 -0.024,10.0846 8.0274,20.4466 20.3887,26.2392 13.173,6.1734 27.8899,5.8766 42.302,-0.853 7.3275,-3.4215 14.8954,-9.5818 21.8837,-17.813 3.2733,-3.8564 4.4184,-4.4897 6.1086,-3.3817 1.8866,1.236 2.1306,2.4439 0.9094,4.5119 -1.3688,2.3195 -7.756,9.5028 -11.2495,12.6525 -5.6052,5.0534 -14.8978,10.4263 -22.849,13.2104 l -3.3531,1.1744 -1.3498,3.5534 c -1.7426,4.5886 -1.8212,7.3542 -0.2988,10.4113 1.7176,3.4448 4.7279,5.3056 9.5748,5.9178 3.2686,0.413 8.3523,0.1501 12.6374,-0.6535 z m 81.6451,0.6603 c 5.6825,-0.922 9.051,-3.4038 10.2925,-7.5849 0.832,-2.8024 0.8213,-3.3576 -0.1321,-6.6686 -1.4665,-5.0985 -1.8855,-5.7739 -3.9066,-6.3063 -5.0183,-1.3217 -14.1253,-5.9993 -19.7566,-10.1466 -4.1339,-3.0442 -12.8874,-11.7677 -15.1858,-15.134 -1.5474,-2.2644 -1.6046,-2.4603 -1.0832,-3.7178 0.6761,-1.6339 2.646,-2.5954 4.0268,-1.9663 0.5166,0.2354 1.8878,1.5981 3.0483,3.0281 3.4614,4.2665 11.3662,11.6433 15.1752,14.1621 8.5416,5.6485 16.5523,8.4675 26.6675,9.3837 6.0217,0.5454 15.894,-1.3815 22.6823,-4.4271 10.6103,-4.7606 18.9317,-14.2604 20.3422,-23.223 0.6952,-4.4206 0.048,-7.21 -2.8115,-12.1077 l -1.8782,-3.2162 -2.9948,3.1531 c -3.5424,3.7296 -8.6297,7.6383 -13.4945,10.3688 l -3.509,1.9698 1.839,4.575 c 2.3806,5.924 2.6651,7.604 1.4843,8.7846 -1.2331,1.2335 -3.5994,1.2021 -4.4231,-0.058 -0.3392,-0.5196 -1.4677,-3.0036 -2.5068,-5.5199 -1.0391,-2.5164 -2.0414,-4.7204 -2.227,-4.8979 -0.1857,-0.1774 -1.9438,0.2163 -3.9066,0.8752 -6.6585,2.2344 -11.3055,2.9917 -19.8185,3.2296 -11.9149,0.333 -18.5734,-1.0638 -27.6173,-5.793 -8.7999,-4.6023 -16.2274,-12.2161 -21.2659,-21.8018 l -1.2141,-2.3096 -0.1072,14.487 c -0.071,9.1934 0.059,15.2878 0.3428,16.6786 0.7059,3.408 2.783,7.0962 5.8147,10.3202 3.4185,3.6365 6.643,6.0298 15.7095,11.6594 11.4971,7.1391 12.7362,8.3619 10.9329,10.7873 -1.5045,2.0243 -2.7055,1.7671 -8.5451,-1.8304 -15.2775,-9.4114 -17.2213,-10.7491 -21.573,-14.8465 -1.5986,-1.5049 -2.3854,-2.0287 -2.2295,-1.4852 0.1322,0.4619 0.4583,1.6841 0.7261,2.716 1.6653,6.4352 8.5857,15.8956 14.9466,20.4351 7.2728,5.1894 17.82,7.7811 26.1604,6.4278 z m -162.1451,-17.8551 c 3.9423,-0.808 8.6452,-2.642 11.9947,-4.6767 2.6413,-1.6039 5.3087,-3.7679 5.3087,-4.3054 0,-0.1763 -0.7915,-0.8444 -1.758,-1.4846 -0.9678,-0.6401 -3.4912,-2.8397 -5.6087,-4.8879 l -3.8495,-3.724 -1.8688,0.8265 c -4.4648,1.9752 -10.6174,1.9794 -16.7284,0.012 -7.5144,-2.4202 -18.3295,-8.8862 -24.3738,-14.5731 l -3.4447,-3.2396 0.3106,3.1368 c 0.894,9.0249 4.0364,15.5729 10.6866,22.2685 3.6899,3.716 7.1679,6.1603 11.9422,8.3937 5.9372,2.7775 11.39,3.4844 17.3891,2.2546 z m 243.0057,-0.6181 c 11.1865,-3.4836 21.2635,-12.8074 25.0475,-23.177 1.1796,-3.2316 2.7437,-11.5065 2.2663,-11.9846 -0.1237,-0.1236 -1.3581,0.9373 -2.7448,2.3578 -5.9039,6.0528 -18.2163,13.3116 -26.458,15.5986 -4.5326,1.2575 -10.202,1.2335 -14.0741,-0.059 l -2.9329,-0.9793 -3.3638,3.3593 c -1.8509,1.8475 -4.4493,4.0996 -5.7753,5.0046 -2.289,1.5622 -2.3758,1.6842 -1.7117,2.4176 1.1403,1.2596 6.8907,4.7896 9.8141,6.0245 6.5633,2.7718 13.9408,3.3041 19.9327,1.4382 z m -244.8078,-22.6491 c 1.3855,-0.2262 3.021,-0.6188 3.6352,-0.8723 l 1.1165,-0.461 -0.9915,-2.2407 c -3.5495,-8.0269 -2.9413,-17.507 1.4878,-23.1811 0.525,-0.6732 0.7285,-1.7481 0.7416,-3.9277 0,-1.6505 0.1428,-4.4457 0.2928,-6.2116 0.2678,-3.143 0.2381,-3.2845 -1.4307,-6.7071 -4.2542,-8.7314 -7.8167,-12.7371 -19.759,-22.2231 -4.5029,-3.5772 -9.2034,-7.4736 -10.4437,-8.6584 l -2.2556,-2.1544 0.2678,3.4207 c 0.3083,3.9497 -0.1071,5.4452 -1.6664,6.0392 -1.6617,0.6318 -3.2103,-0.2958 -3.8828,-2.3271 -0.3047,-0.9207 -0.6665,-4.1304 -0.8034,-7.1327 l -0.2476,-5.4588 -3.259,-3.6347 c -7.0728,-7.8886 -11.2686,-14.6142 -14.2348,-22.8202 -0.7511,-2.078 -1.5105,-3.937 -1.6879,-4.13 -0.1773,-0.193 -1.714,-0.956 -3.415,-1.696 -3.6387,-1.584 -7.2786,-3.986 -11.3602,-7.498 -2.3008,-1.981 -3.0305,-2.41 -3.3245,-1.955 -1.889,2.928 -4.8302,9.547 -5.7253,12.887 -0.9987,3.72 -1.0927,4.779 -1.0999,12.2601 0,7.1595 0.1072,8.6077 0.9154,11.525 1.3057,4.7149 3.8268,9.6005 6.7775,13.1308 l 2.533,3.0301 1.9961,-0.8803 c 1.226,-0.5403 3.2745,-0.9624 5.3064,-1.0928 l 3.309,-0.2124 -0.2119,-3.7169 c -0.1868,-3.2782 -0.4094,-4.1061 -1.8854,-7.0139 -0.9189,-1.8133 -3.1162,-5.4839 -4.8814,-8.1567 -3.6042,-5.459 -3.9482,-6.8101 -2.1033,-8.262 2.2521,-1.771 3.3888,-0.943 7.6346,5.5632 6.1705,9.4537 7.3096,12.4123 7.4263,19.2723 0.071,4.3589 0.1797,5.0055 0.9356,5.6688 0.469,0.4117 2.1211,2.3082 3.6709,4.2144 5.6229,6.9124 9.939,9.5903 19.0876,11.8424 6.2646,1.5421 9.0165,2.7413 11.459,4.9918 2.6234,2.419 3.9006,5.1292 3.8923,8.2645 0,2.3011 -0.2238,2.9091 -2.3973,6.7187 -3.19,5.5887 -3.7363,7.2342 -3.9958,12.0557 -0.2607,4.8146 0.2881,8.1031 2.0652,12.3902 2.4889,6.0052 6.1776,8.6094 13.7825,9.7305 0.119,0.017 1.3438,-0.1542 2.7293,-0.3805 z m 242.6831,-1.2576 c 3.6626,-1.4178 6.0741,-4.0117 7.7346,-8.3171 1.8771,-4.8674 2.2806,-7.1885 2.0485,-11.7946 -0.2547,-5.0598 -0.9284,-7.1677 -3.972,-12.4372 -2.289,-3.9617 -2.4258,-4.3534 -2.4068,-6.9285 0.024,-3.1877 1.0189,-5.448 3.4947,-7.9231 2.2283,-2.2285 4.5839,-3.2497 11.74,-5.0891 9.5926,-2.4658 13.148,-4.6146 18.5639,-11.2178 1.6664,-2.0318 3.5114,-4.1391 4.1006,-4.683 1.0093,-0.9308 1.0772,-1.2512 1.1474,-5.4588 0.119,-6.9136 1.8831,-11.3335 8.2928,-20.7537 2.6151,-3.8418 4.1125,-5.3415 5.3349,-5.3415 1.0927,0 2.9448,1.9271 2.9448,3.0635 0,0.555 -1.7009,3.6172 -3.7994,6.8436 -5.4099,8.3135 -6.3895,10.4982 -6.6181,14.7625 l -0.1856,3.4642 h 3.0186 c 2.133,0 3.6185,0.2579 5.0611,0.8781 2.4401,1.0502 2.7353,0.9294 5.279,-2.1661 7.3513,-8.9469 9.8473,-22.9282 6.4883,-36.3348 -0.8475,-3.383 -5.5884,-13.606 -6.311,-13.606 -0.2178,0 -1.6759,1.164 -3.2399,2.587 -3.4103,3.104 -7.1907,5.606 -11.4507,7.58 l -3.1496,1.459 -1.2165,3.53 c -2.6877,7.798 -7.4262,15.5089 -14.1455,23.0168 l -3.6054,4.0279 -0.2595,5.7393 c -0.2738,6.0668 -0.8558,8.3417 -2.3354,9.1338 -1.101,0.5892 -2.7436,-0.022 -3.6089,-1.3405 -0.5369,-0.82 -0.5821,-1.5317 -0.2583,-4.1052 0.2142,-1.7121 0.313,-3.1904 0.2178,-3.2852 -0.095,-0.094 -1.0534,0.5632 -2.1318,1.4618 -3.2186,2.6843 -6.336,5.2054 -12.7577,10.3177 -7.0382,5.6029 -11.3661,9.9938 -14.3407,14.549 -2.558,3.9163 -5.0766,9.055 -5.0457,10.2913 0.012,0.4998 0.1536,3.2707 0.3131,6.1577 0.2832,5.1127 0.3321,5.3183 1.8961,7.9224 3.1864,5.3085 3.7506,12.8794 1.4462,19.4133 -0.6023,1.7093 -1.2058,3.4384 -1.3403,3.8424 -0.7129,2.1507 8.1215,2.6519 13.0564,0.7409 z m -266.4998,-10.3427 c -0.7963,-2.7498 -0.9499,-4.2343 -0.9106,-8.769 0.059,-6.58 1.0415,-10.1411 4.353,-15.7458 1.1593,-1.9624 2.108,-4.0738 2.108,-4.6917 0,-1.4167 -1.7331,-3.5034 -3.7745,-4.545 -0.8641,-0.4404 -3.8958,-1.3879 -6.7383,-2.1054 -2.8412,-0.7177 -5.8193,-1.5772 -6.6168,-1.9103 -0.7975,-0.3331 -1.6153,-0.6055 -1.8176,-0.6055 -0.8856,0 -0.344,5.3207 0.9296,9.1457 1.2022,3.6056 1.251,3.9733 0.6547,4.8835 -0.9249,1.4122 -2.683,1.7495 -4.0221,0.7721 -2.8757,-2.0987 -5.0183,-11.1117 -3.8434,-16.1709 0.3654,-1.5698 0.3463,-1.6011 -3.0543,-5.039 -1.8819,-1.9027 -4.4065,-4.6204 -5.6111,-6.0395 -2.5163,-2.9643 -4.9779,-4.3516 -7.7048,-4.3415 -6.5979,0.025 -8.9654,7.4593 -5.4052,16.9748 2.9627,7.9176 13.3219,18.6678 23.831,24.7292 2.8186,1.6256 3.828,2.5183 5.8968,5.2149 1.3736,1.7895 3.5078,4.2346 4.7433,5.4337 2.208,2.1446 7.5894,6.4257 7.8227,6.2234 0.071,-0.057 -0.3119,-1.593 -0.8404,-3.4137 z m 284.7329,0.333 c 3.3518,-2.6419 5.4563,-4.878 8.7951,-9.3429 1.351,-1.807 2.6365,-2.8596 5.6396,-4.6185 5.6182,-3.29 9.6403,-6.4505 14.1991,-11.1566 8.5535,-8.8304 12.4446,-17.4315 11.0008,-24.317 -0.9273,-4.4217 -3.1853,-6.2794 -7.2728,-5.9839 -3.2792,0.2373 -5.0016,1.4655 -9.1236,6.5047 -1.8521,2.2658 -4.2411,4.7728 -5.3076,5.5712 -1.3462,1.0079 -1.8556,1.6495 -1.6676,2.0995 0.7463,1.7811 0.6523,6.6466 -0.1964,10.2035 -1.5021,6.299 -3.3007,8.5304 -6.0372,7.4901 -2.0628,-0.784 -2.1877,-1.7798 -0.7499,-5.9354 1.2058,-3.4809 1.8712,-8.3413 1.2296,-8.9857 -0.1404,-0.142 -0.8022,-0.048 -1.4688,0.2086 -0.6678,0.2569 -4.0447,1.2125 -7.5049,2.1238 -6.8394,1.8014 -8.5189,2.668 -9.8866,5.1011 l -0.8963,1.5941 1.3046,2.1923 c 2.3127,3.8912 4.1827,8.0051 4.9076,10.8006 1.3165,5.0814 0.6761,14.2948 -1.3272,19.0596 -0.4499,1.0709 0.1452,0.7149 4.3625,-2.6091 z m -187.9901,0.1118 c 4.3577,-0.7112 10.6425,-2.8892 14.4015,-4.9915 10.9257,-6.1101 19.5304,-17.7669 22.9466,-31.0874 1.7747,-6.921 2.0354,-11.0804 2.0437,-32.6573 v -20.4713 h -3.8839 c -5.7825,-0.01 -17.376,-0.743 -23.5953,-1.494 -17.4546,-2.108 -31.6382,-7.491 -39.443,-14.97 -2.2104,-2.117 -2.5746,-3.893 -1.1034,-5.365 1.4081,-1.408 2.9698,-1.065 5.93,1.302 8.6297,6.903 20.4315,11.032 37.1112,12.985 2.0783,0.243 8.5499,0.559 14.3812,0.7 l 10.6032,0.258 v -16.866 -16.866 l -3.0567,2.509 c -5.2754,4.329 -11.6828,6.784 -21.6253,8.282 -6.2884,0.948 -24.1727,0.926 -30.3015,-0.04 -8.2809,-1.302 -14.0217,-3.788 -19.5245,-8.456 -2.4639,-2.091 -2.7901,-2.239 -5.5468,-2.51 -10.6579,-1.05 -18.6984,6.154 -18.1152,16.231 0.1631,2.81 0.45,3.825 1.914,6.771 7.3608,14.808 31.5311,28.6489 55.8858,32.0024 2.6234,0.3612 7.9072,0.7806 11.7411,0.9317 6.5145,0.257 7.0335,0.3378 7.9322,1.2363 1.2319,1.2319 1.2165,2.3352 -0.048,3.8104 l -1.013,1.1781 -6.4395,-0.1047 c -3.5423,-0.057 -7.0073,-0.2239 -7.7,-0.3703 -1.1903,-0.2516 -1.1403,-0.1592 0.926,1.7002 2.8175,2.5362 5.723,6.4082 7.5846,10.112 1.4081,2.7982 1.6153,3.0055 4.3315,4.3175 1.57,0.758 3.7387,2.18 4.8207,3.1598 2.283,2.067 2.552,3.4934 0.9725,5.1739 -1.2796,1.3624 -2.7639,1.1128 -5.3456,-0.899 -1.0332,-0.8054 -2.0378,-1.4645 -2.2307,-1.4645 -0.1928,0 -0.3535,0.6142 -0.357,1.3648 0,0.7506 -0.2917,2.5754 -0.6404,4.055 -2.3068,9.7864 -10.6913,15.9602 -21.7135,15.9885 -1.5593,0 -2.8353,0.1218 -2.8353,0.2616 0,0.9429 1.5641,6.0121 2.8056,9.0951 1.4093,3.4985 1.4486,3.7318 0.8034,4.7173 -0.7034,1.0739 -2.1378,1.6518 -3.4697,1.3981 -1.8843,-0.3588 -5.2468,-7.9739 -5.8801,-13.3152 -0.3107,-2.6208 -0.024,-2.4615 -7.0656,-4.0007 -11.7768,-2.5756 -16.1893,-4.6433 -15.562,-7.2926 0.3904,-1.6504 1.8307,-2.7216 3.3697,-2.5068 0.7011,0.098 3.6055,0.8694 6.455,1.7147 8.5964,2.5498 13.0386,3.3241 19.3841,3.3785 5.0576,0.044 5.9812,-0.064 8.5701,-0.9976 11.1746,-4.029 12.9529,-18.4269 3.4424,-27.8834 -5.2873,-5.2575 -12.8933,-9.6333 -22.3003,-12.829 -7.7548,-2.6346 -19.1376,-8.245 -24.5475,-12.0993 -5.4921,-3.9128 -12.1744,-10.4368 -14.9276,-14.5748 -1.245,-1.871 -2.9865,-5.265 -3.8697,-7.541 l -1.6057,-4.138 -4.8017,-2.889 c -6.6763,-4.017 -7.9119,-5.264 -7.1644,-7.231 0.2202,-0.58 0.8785,-1.368 1.4629,-1.75 1.37,-0.898 2.5984,-0.489 6.9942,2.331 1.7997,1.154 3.4352,2.099 3.6328,2.099 0.1988,0 0.7832,-1.312 1.2998,-2.917 1.3344,-4.14 3.8518,-7.701 7.1644,-10.134 3.3853,-2.486 6.1313,-3.57 10.7258,-4.234 l 3.5269,-0.51 -0.8546,-1.677 c -1.82,-3.567 -4.96,-13.704 -4.96,-16.014 0,-0.869 2.2389,-3.146 3.0936,-3.146 0.3511,0 1.1272,0.425 1.7235,0.945 0.8416,0.732 1.3653,2.031 2.3294,5.774 0.7725,2.999 2.064,6.499 3.4091,9.238 1.8271,3.718 2.7043,4.949 5.6039,7.858 2.8698,2.879 4.0899,3.76 7.3918,5.336 4.7873,2.285 8.1357,2.997 17.1022,3.635 10.8436,0.773 23.487,-0.306 30.7312,-2.623 6.9727,-2.23 12.1767,-6.293 14.749,-11.516 l 1.4176,-2.881 0.119,-22.112 0.1191,-22.112 -4.1078,2.074 c -4.4755,2.26 -9.07,3.404 -15.7191,3.917 l -3.6316,0.28 -1.0605,2.381 c -2.527,5.674 -3.5055,12.828 -2.8115,20.562 0.263,2.933 0.6523,6.089 0.863,7.013 0.6034,2.633 0.482,3.53 -0.625,4.638 -1.2629,1.263 -2.8626,1.324 -3.9565,0.15 -0.9165,-0.984 -1.9628,-6.021 -2.4139,-11.612 l -0.2786,-3.464 h -2.0604 c -2.2377,0 -4.2827,-0.831 -4.6957,-1.909 -1.0213,-2.658 0.7201,-4.39 4.4148,-4.39 1.3546,0 2.4627,-0.07 2.4627,-0.163 0,-1.177 1.5451,-7.663 2.4949,-10.474 1.1486,-3.396 1.1784,-3.64 0.4464,-3.64 -0.4321,0 -2.9389,-0.555 -5.5718,-1.234 -5.7087,-1.472 -12.3899,-4.275 -21.5147,-9.026 -3.6959,-1.924 -9.4819,-4.939 -12.8588,-6.7 -12.0173,-6.268 -19.6828,-8.962 -26.6425,-9.367 -11.5316,-0.669 -19.9899,4.527 -25.1403,15.447 -3.0222,6.407 -4.0137,13.295 -2.9103,20.214 0.8344,5.229 0.5809,6.37 -1.5141,6.831 -3.4756,0.763 -4.8385,-2.607 -4.8385,-11.966 v -6.508 l -4.6196,-0.01 c -3.947,0 -4.954,-0.153 -6.9275,-1.015 -3.9328,-1.718 -7.6679,-4.449 -11.4555,-8.379 -9.0415,-9.379 -10.7543,-16.247 -6.987,-28.016 1.5735,-4.912 3.7708,-9.772 6.2205,-13.755 0.9736,-1.584 1.6688,-2.983 1.5438,-3.108 -0.5059,-0.506 -5.8765,1.36 -8.125,2.823 -7.4179,4.826 -14.1039,16.465 -15.6548,27.251 -0.7904,5.493 -0.3083,15.282 0.9986,20.287 3.9506,15.132 13.7909,25.473 29.6802,31.19 8.1988,2.95 18.7484,4.452 25.4926,3.629 5.1171,-0.625 7.5227,-1.562 9.7914,-3.817 2.3925,-2.377 3.1472,-4.633 3.9887,-11.918 0.7035,-6.089 1.4367,-9.075 2.9793,-12.119 2.1473,-4.236 5.9254,-7.068 10.2402,-7.675 4.5208,-0.635 11.9209,2.363 18.9186,7.665 5.604,4.247 5.5087,4.185 5.7004,3.682 0.8463,-2.231 3.1067,-5.973 4.0089,-6.64 0.9963,-0.736 1.2808,-0.77 2.4306,-0.293 2.5853,1.07 2.6805,2.44 0.4844,6.98 -2.5829,5.341 -2.5972,4.937 0.2893,7.875 5.2159,5.308 12.3851,16.213 12.9505,19.699 0.313,1.923 -0.9071,3.242 -2.9996,3.242 -1.6105,0 -1.8057,-0.23 -5.1945,-6.14 -3.9637,-6.914 -11.4804,-15.52 -18.1985,-20.838 -7.5179,-5.95 -14.6823,-9.54 -17.7485,-8.893 -4.6208,0.975 -6.8609,5.19 -7.7905,14.666 -0.7654,7.792 -2.2021,11.913 -5.2374,15.031 -3.7827,3.884 -7.8321,5.343 -15.6953,5.654 l -5.611,0.223 -1.1522,1.817 c -2.9806,4.698 -4.5315,13.316 -3.7959,21.079 1.3962,14.738 8.4797,26.75 21.992,37.2961 9.77,7.6253 21.5575,14.6553 39.0561,23.2926 6.0039,2.9637 11.1971,5.6685 11.5388,6.011 0.857,0.8569 0.7808,2.9959 -0.1417,4.0163 -1.589,1.7557 -3.1376,1.2543 -15.756,-5.1023 l -11.8066,-5.9477 -3.359,3.3232 c -8.3273,8.2386 -11.2412,16.2863 -9.4141,25.9984 1.9783,10.5245 8.225,18.4595 20.0661,25.4935 2.483,1.4757 3.409,1.8007 5.1266,1.8007 1.889,0 2.1806,0.1302 2.9484,1.3192 0.7213,1.1183 1.4914,1.5183 5.0504,2.6267 10.3354,3.2181 18.7425,3.9072 28.4161,2.3286 z m 106.6366,-0.03 c 5.4099,-0.9293 13.473,-3.3513 14.1503,-4.2501 0.3035,-0.4045 0.7154,-1.0188 0.9153,-1.3653 0.2453,-0.4284 1.0761,-0.6401 2.5985,-0.6619 1.9925,-0.029 2.702,-0.3225 6.4847,-2.6832 12.4887,-7.7949 18.5723,-16.6688 19.3472,-28.2244 0.4011,-5.9816 -0.8071,-10.4247 -4.3422,-15.972 -1.7891,-2.806 -8.3214,-9.5647 -9.2451,-9.5659 -0.2666,-2e-4 -1.6843,0.6803 -3.1495,1.5126 -5.6004,3.1794 -19.0448,9.6569 -21.6695,10.4401 -0.7177,0.2144 -1.2521,-0.021 -2.2044,-0.9739 -1.4986,-1.4985 -1.6069,-2.9501 -0.3118,-4.1481 0.5201,-0.4804 5.7634,-3.2409 11.653,-6.1344 21.0302,-10.3327 35.7709,-19.7865 45.3635,-29.096 10.4294,-10.12 15.6025,-22.012 15.5941,-35.847 0,-5.78 -0.9641,-10.27 -3.1435,-14.697 l -1.7557,-3.569 -5.4599,-0.25 c -7.7191,-0.353 -11.3412,-1.565 -15.1359,-5.062 -3.628,-3.345 -4.9743,-6.77 -5.8944,-15.002 -1.2772,-11.418 -3.4971,-15.169 -8.9808,-15.169 -1.9592,0 -3.0483,0.325 -6.1312,1.831 -5.3587,2.617 -10.0652,6.256 -16.5666,12.81 -6.3062,6.356 -9.5795,10.528 -12.9719,16.534 -1.351,2.392 -2.671,4.207 -3.2519,4.472 -1.2653,0.577 -2.8186,0 -3.7268,-1.39 -0.5868,-0.894 -0.6142,-1.29 -0.1786,-2.643 1.2736,-3.962 7.6679,-13.488 12.5767,-18.735 l 2.6413,-2.823 -1.9485,-4.591 c -1.0713,-2.525 -1.9485,-4.865 -1.9485,-5.201 0,-0.335 0.5892,-1.104 1.3081,-1.709 2.1902,-1.844 3.7518,-0.9 5.9075,3.574 0.7665,1.589 1.5521,2.894 1.7461,2.899 0.1941,0 1.3284,-0.817 2.5199,-1.829 1.1915,-1.012 3.8125,-2.908 5.8241,-4.215 10.5651,-6.86 18.1509,-7.324 23.6501,-1.445 3.2995,3.527 4.8064,7.966 5.6754,16.722 0.7891,7.951 2.2853,10.789 6.8799,13.051 7.0073,3.45 23.1847,2.021 35.3579,-3.123 5.8836,-2.487 10.1604,-5.255 14.4502,-9.352 7.0549,-6.737 11.0793,-14.481 12.8088,-24.642 0.9701,-5.696 0.6725,-16.328 -0.582,-20.848 -2.6556,-9.567 -8.6369,-18.742 -14.7919,-22.692 -2.0461,-1.313 -6.4395,-2.923 -7.9762,-2.923 -0.707,0 -0.6642,0.185 0.4118,1.785 3.3698,5.013 6.4908,12.097 8.0239,18.219 1.1795,4.706 1.0105,10.391 -0.4202,14.136 -2.777,7.269 -11.9506,16.598 -18.9103,19.229 -2.7068,1.024 -7.481,1.463 -9.8676,0.907 l -1.6795,-0.391 v 6.756 c 0,7.48 -0.669,10.621 -2.5115,11.829 -1.1451,0.749 -2.7723,0.453 -3.8102,-0.693 -0.7606,-0.841 -0.7558,-1.003 0.2297,-7.698 0.8689,-5.91 -0.4475,-12.66 -3.8018,-19.483 -4.5826,-9.327 -12.247,-14.344 -21.9301,-14.358 -8.8522,-0.01 -15.6417,2.49 -36.6315,13.498 -16.1595,8.475 -22.674,11.222 -29.6968,12.522 -1.5592,0.289 -2.8341,0.699 -2.8341,0.911 0,0.212 0.3857,1.53 0.8571,2.929 0.4701,1.398 1.1391,3.991 1.4855,5.76 0.3475,1.77 0.7213,3.643 0.832,4.162 0.1785,0.842 0.4535,0.945 2.521,0.945 1.9045,0 2.5056,0.185 3.3507,1.031 1.2367,1.236 1.3201,2.718 0.2286,4.066 -0.6845,0.845 -1.1796,0.992 -3.3495,0.992 h -2.5461 l -0.2012,1.679 c -0.751,6.271 -1.5783,11.702 -1.9199,12.602 -0.5309,1.396 -2.2152,2.156 -3.6459,1.645 -1.9414,-0.691 -2.0235,-1.259 -1.1986,-8.285 1.251,-10.645 0.4499,-18.944 -2.4116,-24.971 l -0.9439,-1.986 -5.1909,-0.514 c -7.3941,-0.733 -13.0766,-2.444 -17.157,-5.167 l -1.3641,-0.91 v 21.17 c 0,23.242 0.036,23.697 2.564,27.67 2.0996,3.308 5.8824,6.551 9.7652,8.37 6.6526,3.118 14.2979,4.336 27.1424,4.326 12.8957,-0.01 18.8293,-0.944 24.9844,-3.933 8.0024,-3.885 13.4742,-11.553 16.3987,-22.982 0.7737,-3.023 1.326,-4.343 2.1116,-5.04 1.3141,-1.168 1.8629,-1.181 3.2686,-0.07 1.4462,1.137 1.4605,3.133 0.059,8.515 -0.9582,3.689 -3.2317,9.581 -4.0661,10.539 -0.6106,0.701 -0.3773,1.071 0.6737,1.071 0.5631,0 2.3842,0.286 4.0483,0.636 6.8847,1.449 12.1541,5.366 15.0799,11.21 0.9272,1.852 1.6878,3.677 1.6914,4.054 0.012,1.868 0.6487,1.792 4.6183,-0.554 2.1604,-1.277 4.2804,-2.433 4.7113,-2.57 1.689,-0.536 4.0398,2.231 3.4566,4.069 -0.3071,0.969 -2.6187,2.64 -7.9298,5.735 l -4.1268,2.405 -0.9213,2.939 c -1.5961,5.098 -4.1279,9.482 -7.7571,13.434 -8.9499,9.7468 -21.5516,17.4433 -36.7779,22.463 -5.2112,1.718 -9.7272,3.9489 -14.9335,7.3764 -5.0767,3.3419 -8.6499,7.1227 -10.7532,11.379 -1.5593,3.1543 -1.6069,3.3864 -1.6069,7.7252 0,4.2835 0.06,4.5954 1.4688,7.3544 3.4067,6.6788 10.5008,9.0229 22.161,7.3233 3.3341,-0.4859 14.4086,-3.2368 17.6784,-4.3916 2.4698,-0.8716 3.3876,-0.8181 4.5398,0.2644 1.3581,1.2761 1.3117,3.3778 -0.095,4.4882 -1.5867,1.2479 -10.3497,3.9717 -16.3548,5.0831 -1.3855,0.2565 -2.9245,0.5521 -3.4209,0.6569 -0.7403,0.1567 -0.9832,0.6634 -1.3652,2.8548 -0.8356,4.804 -2.7544,9.9453 -4.4732,11.9878 -1.32,1.5686 -2.8567,1.712 -4.2553,0.3973 -1.2725,-1.1955 -1.226,-2.1892 0.2547,-5.4568 1.0927,-2.4089 2.552,-7.118 2.552,-8.233 0,-0.228 -1.6533,-0.5469 -3.6744,-0.7085 -4.9315,-0.3946 -6.9181,-0.8672 -10.1688,-2.4187 -5.8039,-2.7694 -10.1009,-8.9192 -11.0948,-15.8755 l -0.4785,-3.3458 -2.3032,1.6657 c -1.2665,0.9161 -2.7377,1.6717 -3.2674,1.6792 -1.3176,0.018 -3.0257,-1.7833 -3.0257,-3.1924 0,-1.5509 2.7817,-4.0922 6.8061,-6.2192 3.0877,-1.632 3.1626,-1.7103 4.9731,-5.2488 1.3605,-2.6607 2.7674,-4.5596 5.4218,-7.3229 2.0533,-2.1361 3.2257,-3.631 2.7448,-3.4974 -0.4618,0.1283 -3.7018,0.3597 -7.2001,0.5143 -6.5728,0.2904 -7.656,0.1143 -8.8475,-1.4381 -0.8011,-1.0435 -0.6273,-2.5052 0.4238,-3.5562 0.8927,-0.893 1.4283,-0.9809 7.4536,-1.2226 15.4346,-0.6193 27.9983,-3.5411 40.25,-9.3607 18.9175,-8.9868 30.6264,-21.8448 29.7218,-32.6398 -0.7439,-8.871 -8.6237,-14.973 -18.0295,-13.962 -2.6817,0.288 -3.0293,0.457 -6.2788,3.038 -7.3227,5.816 -14.6252,8.079 -28.2553,8.756 -6.5241,0.324 -19.1865,-0.351 -24.1131,-1.287 -4.5351,-0.861 -9.6712,-2.483 -12.7101,-4.014 -2.3758,-1.197 -6.9608,-4.633 -7.6024,-5.699 -1.0141,-1.679 -1.1379,0.294 -1.0344,16.345 l 0.1072,16.902 6.299,-0.125 c 18.5568,-0.367 29.066,-1.841 40.0441,-5.618 7.0382,-2.422 11.559,-4.88 16.369,-8.899 1.0665,-0.892 2.2758,-1.525 2.9115,-1.525 1.5581,0 3.0317,1.539 3.0317,3.165 0,3.223 -9.9283,9.85 -19.9768,13.334 -10.6616,3.696 -22.2836,5.444 -39.9656,6.011 l -8.9224,0.286 v 19.3608 c 0,19.6035 0.2749,25.0633 1.5009,31.1008 3.1079,15.3015 12.391,28.1864 24.7833,34.3997 9.639,4.8328 20.0065,6.2048 31.7036,4.1956 z m -173.6921,-48.2363 c 1.9735,-5.4458 4.8993,-10.1275 9.2915,-14.8654 2.2865,-2.4677 2.7519,-3.182 2.2568,-3.4673 -4.2494,-2.4512 -14.2789,-8.9501 -17.1249,-11.0962 -7.9667,-6.0098 -14.3812,-12.3723 -18.0295,-17.8843 -0.5844,-0.884 -1.3057,-1.607 -1.6021,-1.607 -0.2976,0 -1.9199,0.662 -3.6066,1.47 -1.6867,0.808 -3.5447,1.464 -4.128,1.456 -2.0568,-0.03 -3.6518,-2.134 -2.971,-3.926 0.4928,-1.296 1.5129,-1.972 5.1636,-3.422 1.5581,-0.619 2.8341,-1.271 2.8341,-1.449 0,-0.177 -0.4523,-1.347 -1.0058,-2.598 -4.8279,-10.915 -5.4111,-26.787 -1.357,-36.919 0.6071,-1.517 1.1034,-2.868 1.1034,-3.002 0,-0.135 -0.8034,-0.371 -1.7854,-0.525 -0.9808,-0.153 -3.6376,-0.757 -5.9027,-1.342 -2.2652,-0.585 -4.1815,-0.995 -4.2589,-0.912 -0.083,0.08 -1.2712,1.949 -2.652,4.148 -12.6945,20.207 -13.3837,38.647 -2.0914,55.9401 2.996,4.5873 8.0405,10.5934 9.8236,11.6953 0.7856,0.4855 1.6997,1.4081 2.0318,2.0503 0.638,1.2333 6.7348,6.4939 15.1228,13.0468 7.4763,5.8419 11.8542,9.6192 14.9061,12.863 1.501,1.5954 2.8401,2.7982 2.9758,2.6729 0.1345,-0.1252 0.5868,-1.1725 1.0058,-2.3272 z m 225.5368,0.023 c 2.2842,-2.6466 6.3181,-6.1248 14.8704,-12.8222 10.3235,-8.0846 15.4228,-12.5139 15.7061,-13.6414 0.144,-0.5763 0.7796,-1.3154 1.4117,-1.6421 2.4115,-1.2477 8.0821,-7.9715 11.5756,-13.7265 4.7493,-7.822 6.7216,-14.583 6.7264,-23.067 0,-8.235 -1.5486,-14.851 -5.4087,-23.016 -1.8759,-3.969 -7.0478,-12.261 -7.6417,-12.251 -0.1786,0 -1.4582,0.36 -2.8437,0.794 -1.3855,0.434 -3.9637,1.021 -5.7277,1.305 l -3.209,0.516 1.0272,2.323 c 2.1449,4.85 2.8377,8.93 2.8305,16.682 0,8.204 -0.8201,12.98 -3.3721,19.791 -0.8225,2.197 -1.4307,4.054 -1.351,4.126 0.083,0.07 1.6093,0.738 3.3995,1.479 4.7291,1.958 6.0265,3.992 3.9018,6.117 -1.37,1.37 -2.333,1.298 -6.3169,-0.473 -1.8474,-0.821 -3.5542,-1.578 -3.7923,-1.684 -0.2369,-0.104 -1.3915,1.183 -2.5639,2.863 -5.298,7.5908 -14.3622,15.4126 -27.4686,23.7045 -2.1818,1.3806 -4.76,2.9494 -5.7289,3.4862 l -1.7616,0.9762 3.1459,3.3857 c 4.516,4.8612 8.0298,10.5544 9.4296,15.2768 0.2904,0.9816 0.6761,1.7846 0.8582,1.7846 0.1809,0 1.2177,-1.029 2.3032,-2.2868 z m -285.2423,-67.5232 c 0.4143,-10.818 3.6066,-20.728 9.9069,-30.753 1.4117,-2.245 2.5663,-4.155 2.5663,-4.243 0,-0.09 -1.1808,-0.752 -2.6246,-1.477 -3.9399,-1.976 -9.0392,-5.41 -11.8161,-7.956 -1.5784,-1.448 -2.3794,-1.968 -2.2164,-1.437 0.425,1.371 1.4629,8.576 1.7533,12.168 0.3226,3.988 -0.095,5.343 -1.8545,6.073 -1.1057,0.458 -1.4485,0.433 -2.3639,-0.166 -1.4272,-0.936 -1.7033,-1.827 -2.0247,-6.547 -0.4249,-6.254 -2.1235,-14.345 -4.5576,-21.729 l -0.869,-2.634 -1.6235,2.634 c -7.4704,12.113 -9.8438,23.835 -6.9954,34.546 2.7936,10.508 9.2462,19.801 17.6533,25.425 2.0557,1.374 3.9816,2.499 4.2791,2.499 0.4083,0 0.6023,-1.579 0.7868,-6.403 z m 345.3906,4.598 c 10.0651,-6.051 18.1925,-18.761 19.8113,-30.986 0.8059,-6.085 -0.5511,-14.154 -3.6173,-21.509 -1.3153,-3.154 -5.2397,-10.366 -5.6408,-10.366 -0.7261,0 -3.4198,8.845 -4.5886,15.068 -0.4607,2.452 -1.0249,6.605 -1.2534,9.229 -0.4142,4.763 -0.7047,5.6 -2.2283,6.415 -1.1474,0.614 -3.0638,-0.274 -3.6518,-1.692 -0.5487,-1.326 0.059,-10.273 0.9987,-14.653 l 0.5642,-2.639 -2.1557,2.018 c -3.215,3.011 -6.2752,5.121 -10.8269,7.467 l -4.0887,2.106 2.3425,3.562 c 2.8055,4.266 6.33,11.532 7.8369,16.16 1.7843,5.479 2.4401,9.308 2.6806,15.664 0.2583,6.792 -0.036,6.472 3.8173,4.156 z m -192.4192,-75.876 c 3.809,-0.96 9.3118,-3.552 11.615,-5.47 l 1.5747,-1.312 v -9.677 -9.678 l -1.3878,1.059 c -3.2865,2.507 -5.5945,3.838 -8.4131,4.854 -2.6674,0.962 -3.6459,1.085 -8.6749,1.09 -6.8109,0.01 -9.132,-0.541 -15.7477,-3.712 -5.8146,-2.788 -10.1151,-6.036 -15.8512,-11.974 -6.8561,-7.097 -11.2697,-9.514 -18.2485,-9.993 -8.7296,-0.598 -16.2868,3.29 -19.559,10.064 -1.3105,2.716 -2.9484,8.761 -2.4889,9.19 0.1655,0.155 2.7567,1.089 5.7587,2.076 3.8815,1.277 8.5523,3.37 16.1666,7.246 22.3217,11.364 25.0916,12.705 29.0005,14.052 6.3812,2.197 10.7698,2.96 17.2272,2.993 4.3875,0.02 6.4752,-0.164 9.0284,-0.808 z m 53.3552,0.208 c 7.756,-1.483 13.1826,-3.782 31.0097,-13.134 12.4851,-6.55 19.79,-9.879 25.0892,-11.437 3.0376,-0.893 3.2543,-1.033 3.2543,-2.111 0,-1.552 -1.532,-6.431 -2.8187,-8.973 -3.7958,-7.504 -13.6432,-11.148 -23.3894,-8.655 -5.1909,1.327 -7.0466,2.556 -13.054,8.639 -8.269,8.375 -13.8634,12.158 -22.0717,14.924 -5.0564,1.704 -11.9959,2.154 -16.35,1.059 -3.4828,-0.876 -8.1131,-3.139 -10.3544,-5.06 -0.9606,-0.823 -1.8581,-1.497 -1.995,-1.497 -0.1356,0 -0.2475,4.327 -0.2475,9.615 v 9.614 l 1.4533,1.276 c 2.8948,2.542 7.4715,4.694 12.1863,5.73 3.5412,0.778 13.2445,0.784 17.2879,0.01 z m -171.7376,-2.994 c 1.364,-0.666 1.9318,-1.414 3.7232,-4.911 6.0896,-11.88 14.3098,-17.485 26.8163,-18.284 l 4.1565,-0.266 0.7285,-3.569 c 2.3092,-11.299 8.8618,-18.303 19.6625,-21.013 l 1.8272,-0.458 -0.3167,-1.967 c -0.1749,-1.082 -0.3487,-3.753 -0.3868,-5.936 l -0.071,-3.97 -1.4415,-0.36 c -3.9863,-0.996 -4.6481,-1.25 -5.8312,-2.247 -1.5034,-1.265 -1.6308,-2.54 -0.4095,-4.094 1.0225,-1.3 2.6829,-1.445 5.4289,-0.477 3.1496,1.112 3.0901,1.17 4.5565,-4.514 1.4581,-5.653 2.289,-7.174 4.0316,-7.38 1.4712,-0.174 3.1697,1.346 3.1685,2.835 0,0.595 -0.5499,3.254 -1.2212,5.91 -1.601,6.341 -2.2901,12.327 -1.9354,16.797 0.4047,5.088 0.5285,5.457 1.8378,5.465 1.8938,0.01 7.7012,1.636 10.4711,2.931 1.8175,0.849 2.6853,1.075 2.7781,0.723 0.071,-0.281 0.5607,-2.023 1.0808,-3.871 0.5214,-1.847 1.026,-3.642 1.1225,-3.989 0.1071,-0.396 -0.5476,-1.083 -1.7783,-1.853 -1.9593,-1.228 -3.5317,-3.227 -3.5352,-4.494 0,-0.373 0.3904,-1.176 0.8689,-1.784 1.1605,-1.475 2.6627,-1.425 5.1849,0.175 1.1106,0.704 2.0938,1.207 2.1842,1.117 0.083,-0.09 1.2737,-2.698 2.6306,-5.795 3.1376,-7.161 4.366,-11.474 4.3779,-15.37 0,-2.56 -0.1952,-3.435 -1.3379,-5.756 -1.6152,-3.28 -3.7018,-5.192 -8.0928,-7.412 -8.45,-4.274 -15.8941,-4.345 -22.7467,-0.218 -8.4273,5.077 -17.9211,18.235 -27.7792,38.505 -1.7557,3.609 -3.5161,6.836 -3.9113,7.171 -0.3952,0.334 -2.6092,0.949 -4.9183,1.366 -13.1517,2.374 -20.9065,7.589 -28.6303,19.256 -2.8698,4.335 -3.7995,5.049 -5.7039,4.384 -2.2092,-0.77 -2.5306,-2.643 -0.9761,-5.686 2.6711,-5.226 8.7416,-12.388 13.6849,-16.147 5.0433,-3.834 13.2635,-7.123 20.2839,-8.115 l 2.0176,-0.286 3.7173,-7.424 c 5.6991,-11.387 10.5401,-19.432 15.6155,-25.952 1.1201,-1.439 2.0235,-2.762 2.0081,-2.94 -0.012,-0.178 -1.4403,-1.418 -3.1662,-2.755 -1.726,-1.337 -3.315,-2.896 -3.5305,-3.464 -0.7642,-2.009 0.7511,-3.973 3.065,-3.973 0.9594,0 5.7087,3.249 6.9657,4.764 0.3166,0.382 0.7273,0.695 0.9106,0.695 0.1845,0 1.4367,-0.943 2.7829,-2.097 5.0409,-4.317 11.5042,-6.721 18.0711,-6.721 h 3.5197 l 2.1866,-2.238 c 4.2256,-4.326 10.8663,-6.458 18.7722,-6.026 2.4259,0.132 5.5433,0.55 6.9288,0.928 9.6843,2.642 17.051,9.921 20.3898,20.143 0.8011,2.452 0.9749,3.984 1.0534,9.238 l 0.095,6.299 1.3724,0.949 c 1.2963,0.896 4.8172,2.157 7.8501,2.812 l 1.3652,0.295 v -19.328 -19.327 l -1.0522,-3.331 c -1.8247,-5.777 -6.4169,-11.891 -12.1994,-16.243 -6.1503,-4.629 -12.9742,-7.662 -21.5896,-9.597 -2.6496,-0.595 -5.2957,-1.437 -5.8789,-1.87 -1.5724,-1.169 -1.5915,-2.76 -0.048,-4.3 1.4831,-1.483 1.4521,-1.485 9.4879,0.468 5.0492,1.228 9.9509,2.933 13.3182,4.633 5.7623,2.909 12.2244,8.064 15.9239,12.703 l 1.6211,2.032 v -2.662 c 0,-2.075 -0.2737,-3.239 -1.2367,-5.276 -4.1303,-8.729 -11.7982,-15.611 -20.7481,-18.618 -7.0061,-2.355 -9.6652,-2.704 -20.4267,-2.688 -8.8832,0.01 -10.5354,0.132 -16.5666,1.188 -14.7538,2.584 -23.7798,6.446 -31.0454,13.284 -4.3268,4.073 -7.975,9.47 -8.8868,13.148 -0.25,1.009 0.7892,4.488 1.3415,4.488 0.083,0 1.0415,-0.689 2.1401,-1.531 2.771,-2.123 7.9393,-4.56 12.916,-6.091 2.3091,-0.71 4.4172,-1.506 4.6838,-1.768 0.2654,-0.263 1.0974,-1.968 1.8473,-3.789 1.4653,-3.56 3.39,-6.137 4.5839,-6.137 0.4071,0 1.2379,0.392 1.8461,0.87 1.4284,1.124 1.4403,2.803 0.048,5.805 -0.5796,1.246 -0.9974,2.322 -0.9296,2.39 0.071,0.07 1.9152,-0.04 4.103,-0.251 3.7173,-0.352 14.1717,0.03 18.8853,0.689 3.584,0.501 5.0219,1.852 4.441,4.169 -0.1405,0.558 -0.7142,1.315 -1.2736,1.682 -0.9011,0.59 -1.5891,0.609 -5.9004,0.165 -7.012,-0.723 -19.0209,-0.328 -24.2523,0.798 -14.6014,3.144 -23.124,9.22 -28.8207,20.551 -2.27,4.514 -3.3067,7.335 -5.8754,15.97 -3.7161,12.493 -6.9204,18.606 -13.1611,25.109 -4.1113,4.283 -8.4809,7.642 -15.4037,11.842 -2.7901,1.693 -5.9372,3.941 -6.993,4.997 -5.9717,5.972 -11.9625,18.986 -11.9982,26.067 -0.024,4.066 0.9808,6.844 3.8375,10.638 2.277,3.025 6.2919,6.926 8.9082,8.658 4.0125,2.655 9.201,3.27 12.7898,1.517 z m 281.3083,0.256 c 4.8636,-1.642 12.2958,-8.588 15.0835,-14.097 1.1605,-2.293 1.2546,-2.815 1.2427,-6.89 -0.012,-5.219 -0.9201,-8.28 -4.6886,-15.834 -4.097,-8.212 -6.7859,-11.06 -15.3739,-16.277 -10.2402,-6.221 -17.3463,-13.195 -21.6921,-21.287 -2.3937,-4.459 -3.4423,-7.258 -6.3455,-16.937 -5.7336,-19.117 -12.1934,-27.109 -25.9759,-32.139 -7.187,-2.623 -10.1997,-3.073 -20.8112,-3.105 -5.3123,-0.02 -11.2066,0.131 -13.1004,0.328 -3.3686,0.349 -3.465,0.333 -4.5398,-0.742 -1.4022,-1.403 -1.3082,-3.388 0.213,-4.494 1.4903,-1.082 8.5535,-1.745 18.3223,-1.719 l 8.0334,0.02 -1.2844,-2.89 c -1.0986,-2.472 -1.2141,-3.046 -0.7963,-3.962 0.2678,-0.589 0.9213,-1.268 1.451,-1.509 2.1866,-0.997 4.1875,0.996 6.4931,6.469 0.5999,1.424 1.2974,2.8 1.5474,3.057 0.2511,0.256 2.158,0.983 4.2363,1.615 4.8076,1.463 8.8855,3.358 12.5481,5.833 1.589,1.074 2.9269,1.953 2.9722,1.953 0.048,0 0.507,-0.907 1.026,-2.015 l 0.9439,-2.015 -1.0451,-2.363 c -4.3696,-9.882 -14.9061,-18.091 -28.1315,-21.917 -17.9831,-5.203 -38.4967,-5.334 -50.5175,-0.321 -6.0468,2.522 -10.6639,6.064 -14.4491,11.086 -3.8339,5.089 -5.4397,8.541 -5.4397,11.693 v 2.568 l 1.6224,-2.053 c 6.699,-8.475 18.4723,-14.836 32.8975,-17.776 3.5019,-0.714 4.3315,-0.762 5.279,-0.309 1.4069,0.675 2.0795,2.432 1.5295,4.001 -0.463,1.322 -1.1034,1.571 -8.8034,3.432 -14.511,3.508 -26.0688,11.895 -30.8145,22.362 -1.9818,4.371 -2.1306,6.206 -2.1306,26.28 v 18.643 l 1.3641,-0.273 c 2.6424,-0.528 6.5847,-1.957 7.9559,-2.885 l 1.3879,-0.938 -0.1428,-4.179 c -0.2,-5.874 0.9713,-11.341 3.5483,-16.567 1.6295,-3.305 2.5865,-4.608 5.5789,-7.598 5.617,-5.612 10.8222,-7.798 19.6126,-8.237 7.9071,-0.395 14.618,1.795 18.9079,6.171 l 2.0449,2.084 3.1864,0.01 c 6.1527,0.02 13.673,2.889 18.3878,7.013 1.1415,0.999 2.2342,1.811 2.4282,1.806 0.194,0 1.4605,-0.933 2.8163,-2.061 4.629,-3.85 6.7049,-4.277 8.0583,-1.659 0.9784,1.892 0.2654,3.185 -3.2138,5.83 -1.6105,1.225 -3.0293,2.389 -3.1519,2.587 -0.1214,0.197 1.0855,2.105 2.6829,4.24 5.0885,6.8 10.0473,15.172 15.7893,26.661 2.6175,5.236 2.8532,5.564 4.0102,5.564 1.9628,0 10.4734,2.338 13.5587,3.725 6.8906,3.098 13.767,9.208 18.896,16.792 2.8305,4.184 3.7947,6.427 3.3102,7.702 -0.5142,1.354 -1.5176,2.119 -2.777,2.119 -1.4509,0 -2.1151,-0.652 -4.6183,-4.532 -7.318,-11.343 -15.8501,-17.153 -28.3446,-19.302 -2.1938,-0.377 -4.4101,-0.856 -4.9255,-1.063 -0.6701,-0.27 -2.1842,-2.871 -5.3242,-9.145 -7.9941,-15.975 -13.2576,-24.018 -20.3946,-31.167 -5.0647,-5.073 -7.662,-6.81 -12.1577,-8.13 -8.2822,-2.433 -21.3267,2.752 -25.1404,9.992 -0.9974,1.896 -1.1284,2.609 -1.1224,6.134 0,3.49 0.1976,4.547 1.539,8.44 0.844,2.447 2.3878,6.279 3.4329,8.514 l 1.8985,4.063 2.0652,-1.27 c 1.1355,-0.699 2.477,-1.271 2.9817,-1.271 1.2462,0 2.9793,1.82 2.9793,3.129 0,1.308 -2.4485,4.124 -4.2256,4.861 -0.7165,0.296 -1.1891,0.757 -1.0772,1.049 0.7416,1.932 1.9426,6.325 1.9426,7.102 0,0.515 0.1071,1.045 0.2428,1.178 0.1333,0.134 1.4093,-0.303 2.8353,-0.97 2.7853,-1.304 8.5154,-2.912 10.3746,-2.912 1.3594,0 1.4891,-0.447 1.8914,-6.547 0.3226,-4.894 -0.4035,-10.122 -2.3782,-17.129 -1.2772,-4.529 -1.2808,-4.579 -0.4916,-5.636 1.2213,-1.636 2.0104,-1.997 3.3555,-1.533 1.5188,0.524 2.3734,2.3 3.8113,7.911 1.2653,4.941 1.1653,4.857 4.5422,3.833 3.6197,-1.098 5.0754,-0.663 5.8039,1.732 0.6701,2.204 -1.2939,3.828 -5.7492,4.753 -1.3129,0.272 -2.4639,0.625 -2.5567,0.782 -0.095,0.158 -0.2381,2.906 -0.3214,6.106 l -0.1536,5.82 3.1496,0.914 c 9.7116,2.822 16.2119,10.422 18.0794,21.145 l 0.5309,3.044 h 3.6447 c 6.5086,0 13.5373,2.457 18.3723,6.424 3.1817,2.61 6.5645,7.074 9.0391,11.929 2.2176,4.35 2.5544,4.685 5.7611,5.73 1.4605,0.476 4.6267,0.215 6.9668,-0.576 z m -163.4008,-23.31 c 3.8661,-1.007 7.2954,-3.064 10.6199,-6.368 l 3.0447,-3.026 v -16.148 -16.147 l -2.2044,-0.3 c -2.3937,-0.325 -8.9868,-2.562 -9.3676,-3.178 -0.4774,-0.772 -0.9297,-0.331 -1.6546,1.614 -0.4082,1.097 -2.0842,4.829 -3.7232,8.294 -2.6937,5.691 -2.9972,6.594 -3.1412,9.369 -0.1512,2.902 -0.059,3.266 1.5795,6.613 1.6569,3.375 1.7093,3.597 1.1117,4.751 -1.0058,1.945 -2.7817,2.283 -4.5767,0.872 -0.6011,-0.473 -1.7723,-2.235 -2.602,-3.914 -1.1807,-2.389 -1.5616,-3.744 -1.7485,-6.219 -0.325,-4.29 0.2535,-6.446 3.8673,-14.412 4.8862,-10.771 5.4075,-12.692 5.4135,-19.946 0,-5.619 -0.083,-6.308 -1.1177,-8.935 -2.3045,-5.838 -6.0967,-10.105 -11.3186,-12.735 -6.6728,-3.36 -14.5788,-3.621 -20.4529,-0.676 -2.5615,1.284 -3.0412,1.974 -1.6272,2.338 1.595,0.41 7.124,3.837 9.3201,5.777 5.8182,5.138 7.8524,12.798 5.7337,21.58 -1.0475,4.342 -2.1616,7.245 -6.4717,16.874 -4.0244,8.989 -4.8909,11.578 -4.8862,14.59 0,3.876 3.0222,7.742 9.864,12.65 8.3893,6.017 17.3963,8.49 24.3381,6.682 z m 48.2738,-0.409 c 8.6606,-2.51 18.752,-9.627 21.6194,-15.248 1.801,-3.53 0.8059,-8.132 -4.0541,-18.763 -4.7196,-10.32 -6.6967,-16.339 -7.1061,-21.625 -0.6833,-8.834 3.8768,-16.112 12.7957,-20.422 2.3247,-1.124 4.2399,-2.145 4.2553,-2.27 0.071,-0.537 -4.5767,-2.881 -6.6514,-3.357 -3.19,-0.732 -9.6069,-0.289 -13.054,0.9 -8.0107,2.763 -13.7289,8.978 -15.7929,17.165 -0.9701,3.85 -0.6189,10.362 0.8177,15.176 0.5952,1.993 2.5009,6.727 4.2339,10.52 3.5757,7.822 4.2208,10.202 3.903,14.395 -0.3475,4.587 -2.5829,9.34 -5.0361,10.713 -1.0284,0.575 -1.2641,0.575 -2.3009,0 -0.6344,-0.355 -1.3938,-1.144 -1.6866,-1.752 -0.4821,-1.002 -0.369,-1.415 1.195,-4.385 1.6498,-3.133 1.72,-3.419 1.5784,-6.437 -0.1357,-2.883 -0.394,-3.671 -2.9532,-9.037 -1.5414,-3.233 -3.2019,-6.951 -3.6887,-8.262 l -0.8856,-2.384 -2.7234,1.274 c -1.4974,0.701 -4.3232,1.585 -6.2788,1.964 l -3.5555,0.69 v 15.797 15.796 l 1.6665,2.094 c 5.8205,7.31 14.6442,10.087 23.7048,7.462 z m -187.4187,-29.999 c 2.4032,-0.198 4.8434,-0.547 5.4207,-0.775 2.8305,-1.118 13.4372,-7.771 13.4372,-8.428 0,-0.182 -0.4999,-0.789 -1.1093,-1.349 -2.1199,-1.945 -4.7695,-5.902 -4.7695,-7.122 0,-1.326 1.6652,-2.924 3.0447,-2.924 0.8725,0 2.5759,1.585 5.867,5.459 l 1.9616,2.309 2.1771,-2.309 c 4.7588,-5.051 7.5858,-10.45 10.6651,-20.366 4.8302,-15.556 7.1096,-20.941 11.0019,-25.991 1.889,-2.45 1.9033,-2.492 1.3677,-4.115 -0.9534,-2.888 -1.1284,-2.98 -3.7518,-1.984 -10.2045,3.876 -19.3424,12.336 -23.7203,21.961 -1.8117,3.983 -2.3997,6.478 -2.5366,10.759 -0.059,1.963 -0.1333,3.693 -0.1559,3.845 -0.024,0.153 -1.3177,0.977 -2.8769,1.834 -8.919,4.899 -14.9526,10.878 -19.0877,18.917 -1.8985,3.691 -3.6923,8.711 -3.6923,10.334 0,0.692 0.1964,0.786 1.1939,0.567 0.6558,-0.144 3.159,-0.424 5.5634,-0.622 z m 321.6131,0.03 c 0,-1.312 -2.0056,-7.028 -3.5256,-10.046 -1.9128,-3.799 -5.8313,-9.004 -8.9285,-11.862 -2.4818,-2.289 -7.7167,-5.969 -11.5316,-8.105 l -1.9414,-1.087 -0.1988,-4.737 c -0.1702,-4.074 -0.3904,-5.229 -1.57,-8.245 -2.6662,-6.819 -8.9748,-14.537 -15.4405,-18.895 -2.6413,-1.78 -9.9569,-5.522 -10.7937,-5.522 -0.2499,0 -0.9844,0.878 -1.6331,1.952 l -1.1784,1.952 2.4937,3.612 c 1.3712,1.986 3.2507,5.123 4.1756,6.971 1.6236,3.24 2.3853,5.415 6.5752,18.76 2.1652,6.9 3.7042,10.563 5.8325,13.892 1.4664,2.292 5.8277,7.415 6.7728,7.955 0.3309,0.19 1.3974,-0.827 2.9674,-2.831 2.702,-3.45 3.8637,-4.393 5.4147,-4.393 1.1117,0 2.7757,1.735 2.7734,2.891 0,0.964 -1.4581,3.238 -3.8316,5.984 -1.126,1.301 -2.0461,2.471 -2.0461,2.598 0,0.411 6.8799,4.776 10.9852,6.97 3.6543,1.952 4.2375,2.135 6.8955,2.163 1.5985,0.02 3.7554,0.183 4.7945,0.368 2.8603,0.509 2.9388,0.5 2.9388,-0.345 z" id="path189" /></g></svg>